# xmcd
#
# Track frame offsets: 
#        150
#        36450
#        86775
#        113072
#        150075
#        191025
#
# Disc length: 3697 seconds
#
# Revision: 2
# Processed by: cddbd v1.5.2PL0 Copyright (c) Steve Scherf et al.
# Submitted via: ExactAudioCopy v1.3
#
DISCID=440e6f06
DTITLE=ベートーヴェン - 交響曲第5番＆エグモント序曲＆大フーガ　フルトヴェングラー／BPO1947／1952
DYEAR=1947
DGENRE=Symphony
TTITLE0=Beethoven_ Symphony No.5 - I. Allegro con brio
TTITLE1=Beethoven_ Symphony No.5 - II. Andante con moto
TTITLE2=Beethoven_ Symphony No.5 - III. Allegro
TTITLE3=Beethoven_ Symphony No.5 - IV. Allegro 
TTITLE4=Beethoven_ Egmont Op. 84 Ouverture
TTITLE5=Beethoven_ Grosse Fuge B-dur Op. 133
EXTD=YEAR: 1947
EXTT0=
EXTT1=
EXTT2=
EXTT3=
EXTT4=
EXTT5=
PLAYORDER=
